<?xml version="1.0" encoding="iso-8859-1"?>
<!-- Generator: Adobe Illustrator 20.1.0, SVG Export Plug-In . SVG Version: 6.00 Build 0)  -->
<svg version="1.1" id="&#x56FE;&#x5C42;_1" xmlns="http://www.w3.org/2000/svg" xmlns:xlink="http://www.w3.org/1999/xlink" x="0px"
	 y="0px" viewBox="0 0 680.314 680.317" style="enable-background:new 0 0 680.314 680.317;" xml:space="preserve">
<g>
	<g>
		<g>
			<path style="fill:#DCB918;" d="M680.314,340.153c0,187.862-152.306,340.164-340.149,340.164C152.306,680.317,0,528.015,0,340.153
				C0,152.301,152.306,0,340.165,0C528.008,0,680.314,152.301,680.314,340.153z"/>
		</g>
		<g>
			<path style="fill:#FFFFFF;" d="M340.164,105.821c-129.44,0-234.35,104.92-234.35,234.33c0,129.42,104.91,234.32,234.35,234.32
				c129.42,0,234.33-104.9,234.33-234.32C574.494,210.741,469.584,105.821,340.164,105.821z M340.164,567.391
				c-125.51,0-227.25-101.74-227.25-227.24c0-125.49,101.74-227.22,227.25-227.22c125.48,0,227.22,101.73,227.22,227.22
				C567.384,465.651,465.644,567.391,340.164,567.391z"/>
		</g>
		<path style="fill:#00499D;" d="M340.164,11.331c-181.61,0-328.83,147.22-328.83,328.82s147.22,328.84,328.83,328.84
			c181.6,0,328.81-147.24,328.81-328.84S521.764,11.331,340.164,11.331z M340.164,567.391c-125.51,0-227.25-101.74-227.25-227.24
			c0-125.49,101.74-227.22,227.25-227.22c125.48,0,227.22,101.73,227.22,227.22C567.384,465.651,465.644,567.391,340.164,567.391z"
			/>
	</g>
	<g>
		<circle style="fill:#FFFFFF;" cx="62.233" cy="336.843" r="45.28"/>
		<circle style="fill:#FFFFFF;" cx="62.233" cy="338.843" r="41.734"/>
		<path style="fill:#E72410;" d="M81.537,369.387c-4.478,2.504-12.025,5.123-18.93,5.123c-0.269,0-0.532-0.02-0.798-0.011
			c-2.137,0.075-2.164-1.368-0.752-5.17c2.173-5.848,3.456-15.399,3.03-24.985c-0.475-10.61-4.772-19.584-6.055-23.289
			c-1.281-3.708,0.855-4.136,2.851-4.561c1.998-0.428,4.656-0.985,5.988-1.393c2.454-0.744,3.279-1.176,5.418-1.745
			c2.141-0.57,4.987-0.283,6.271,1.999c1.281,2.281,9.333,14.018,9.333,33.549C87.892,354.962,86.162,366.796,81.537,369.387z"/>
		<path style="fill:#E72410;" d="M44.733,304.033c5.239-3.315,11.401-4.525,17.874-4.525c4.268,0,8.354,0.746,12.187,2.022
			c1.411,0.47,2.266,2.747,2.266,3.891c0,1.139-0.988,3.741-5.431,5.126c-4.443,1.387-10.713,3.419-15.828,3.419
			c-5.114,0-12.798-1.651-12.798-6.53C43.003,305.937,43.401,304.874,44.733,304.033z"/>
		<path style="fill:#E72410;" d="M28.929,320.492c1.876-4.487,5.112-8.253,8.696-11.458c0,0,1.799-1.477,2.514-2.046
			c0,0,0.086,2.685,1.88,4.708c1.788,2.023,5.245,3.561,8.808,4.559c0,0,1.71,0.997,2.71,2.565
			c1.519,2.386,6.905,15.348,7.128,22.952c0.073,2.581-2.1,4.714-5.555,4.224c-3.451-0.492-9.454-0.346-19.111-9.354
			C33.862,334.646,26.563,326.152,28.929,320.492z"/>
		<path style="fill:#E72410;" d="M51.972,372.978c-15.409-4.991-26.865-18.953-26.865-35.97c0-2.52,0.487-4.891,0.722-6.197
			c0.287-1.598,1.495-1.793,2.045-0.69c0.561,1.102,3.199,6.774,9.296,11.792c6.102,5.018,12.76,7.751,22.12,7.986
			c1.088,0.025,1.66,1.733,1.66,3.303c0,1.569-0.999,13.399-4.85,17.797C55.104,372.14,54.116,373.673,51.972,372.978z"/>
		<path style="fill:#E72410;" d="M91.172,361.201c5.213-5.158,8.935-14.42,8.935-24.193c0-3.786-0.558-7.443-1.606-10.89
			c0,0-0.877-1.575-1.73-0.238c-0.609,0.962-1.431,1.936-2.176,3.245c-0.745,1.3-4.798,4.38-4.419,6.805
			c1.425,9.159,0.137,21.384-0.288,23.378C89.46,361.306,90.088,362.268,91.172,361.201z"/>
		<path style="fill:#E72410;" d="M94.722,317.635c-3.05-5.396-7.396-10.312-13.025-12.913c-0.648-0.298-1.647-0.324-1.647,1.27
			c0,0.889-0.438,2.292-0.456,3.151c-0.016,0.858-0.399,2.692,0.742,4.117c1.141,1.428,6.185,10.266,7.415,15.255
			c0.278,1.131,0.576,2.304,2.424,1.283c1.846-1.022,4.05-5.723,4.762-7.122C95.45,321.675,95.419,318.869,94.722,317.635z"/>
	</g>
	<g>
		<circle style="fill:#FFFFFF;" cx="617.774" cy="336.843" r="45.28"/>
		<circle style="fill:#FFFFFF;" cx="617.774" cy="338.843" r="41.734"/>
		<path style="fill:#E72410;" d="M637.078,369.387c-4.478,2.504-12.025,5.123-18.93,5.123c-0.269,0-0.532-0.02-0.798-0.011
			c-2.137,0.075-2.164-1.368-0.752-5.17c2.173-5.848,3.456-15.399,3.03-24.985c-0.475-10.61-4.772-19.584-6.055-23.289
			c-1.281-3.708,0.855-4.136,2.851-4.561c1.998-0.428,4.656-0.985,5.988-1.393c2.454-0.744,3.279-1.176,5.418-1.745
			c2.141-0.57,4.987-0.283,6.271,1.999c1.281,2.281,9.333,14.018,9.333,33.549C643.434,354.962,641.704,366.796,637.078,369.387z"/>
		<path style="fill:#E72410;" d="M600.274,304.033c5.239-3.315,11.401-4.525,17.874-4.525c4.268,0,8.354,0.746,12.187,2.022
			c1.411,0.47,2.266,2.747,2.266,3.891c0,1.139-0.988,3.741-5.431,5.126c-4.443,1.387-10.713,3.419-15.828,3.419
			c-5.114,0-12.798-1.651-12.798-6.53C598.544,305.937,598.942,304.874,600.274,304.033z"/>
		<path style="fill:#E72410;" d="M584.471,320.492c1.876-4.487,5.112-8.253,8.696-11.458c0,0,1.799-1.477,2.514-2.046
			c0,0,0.086,2.685,1.88,4.708c1.788,2.023,5.245,3.561,8.808,4.559c0,0,1.71,0.997,2.71,2.565
			c1.519,2.386,6.905,15.348,7.128,22.952c0.073,2.581-2.1,4.714-5.555,4.224c-3.451-0.492-9.454-0.346-19.111-9.354
			C589.403,334.646,582.104,326.152,584.471,320.492z"/>
		<path style="fill:#E72410;" d="M607.514,372.978c-15.409-4.991-26.865-18.953-26.865-35.97c0-2.52,0.487-4.891,0.722-6.197
			c0.287-1.598,1.495-1.793,2.045-0.69c0.561,1.102,3.199,6.774,9.296,11.792c6.102,5.018,12.76,7.751,22.12,7.986
			c1.088,0.025,1.66,1.733,1.66,3.303c0,1.569-0.999,13.399-4.85,17.797C610.646,372.14,609.658,373.673,607.514,372.978z"/>
		<path style="fill:#E72410;" d="M646.713,361.201c5.213-5.158,8.935-14.42,8.935-24.193c0-3.786-0.558-7.443-1.606-10.89
			c0,0-0.877-1.575-1.73-0.238c-0.609,0.962-1.431,1.936-2.176,3.245c-0.745,1.3-4.798,4.38-4.419,6.805
			c1.425,9.159,0.137,21.384-0.288,23.378C645.002,361.306,645.629,362.268,646.713,361.201z"/>
		<path style="fill:#E72410;" d="M650.264,317.635c-3.05-5.396-7.396-10.312-13.025-12.913c-0.648-0.298-1.647-0.324-1.647,1.27
			c0,0.889-0.438,2.292-0.456,3.151c-0.016,0.858-0.399,2.692,0.742,4.117c1.141,1.428,6.185,10.266,7.415,15.255
			c0.278,1.131,0.576,2.304,2.424,1.283c1.846-1.022,4.05-5.723,4.762-7.122C650.992,321.675,650.961,318.869,650.264,317.635z"/>
	</g>
	<path style="fill:#FFFFFF;" d="M183.375,151.089c-0.992-3.779-3.196-7.387-6.612-10.824c-1.378-1.386-2.735-2.534-4.071-3.446
		c-2.614-1.764-5.059-2.895-7.332-3.391c-3.398-0.698-6.415-0.427-9.051,0.815c0.687-1.658,1.003-3.379,0.95-5.164
		c-0.111-4.252-1.976-8.198-5.593-11.838c-2.21-2.223-4.397-3.867-6.562-4.932c-4.033-2.019-7.958-2.567-11.772-1.646
		c-4.475,1.061-8.443,3.312-11.904,6.751l-13.117,13.039l53.996,54.322l16.224-16.125c2.193-2.181,3.772-5.013,4.733-8.495
		C184.122,157.063,184.159,154.042,183.375,151.089z M143.475,139.594l-3.662,3.64l-13.778-13.862l3.661-3.64
		c1.73-1.72,3.668-2.582,5.812-2.59c2.322-0.012,4.604,1.108,6.843,3.361c1.35,1.357,2.312,2.667,2.892,3.929
		C146.783,133.837,146.193,136.891,143.475,139.594z M167.373,163.636l-3.662,3.641l-16.104-16.202l3.662-3.64
		c2.162-2.149,4.433-3.143,6.808-2.978c2.613,0.158,5.428,1.752,8.442,4.785c1.264,1.271,2.182,2.598,2.756,3.978
		C170.973,157.216,170.339,160.687,167.373,163.636z"/>
	<polygon style="fill:#FFFFFF;" points="222.338,135.154 194.334,153.826 151.877,90.15 162.154,83.298 198.241,137.42 
		215.968,125.599 	"/>
	<path style="fill:#FFFFFF;" d="M243.233,126.763c-5.024,2.104-9.968,2.253-14.833,0.448c-4.864-1.804-8.271-5.034-10.221-9.692
		l-22.855-54.595l11.152-4.669l22.809,54.482c0.707,1.69,1.951,2.857,3.733,3.502c1.781,0.646,3.576,0.589,5.385-0.168
		c1.809-0.758,3.099-1.992,3.869-3.706c0.771-1.713,0.802-3.414,0.095-5.104l-22.809-54.482l11.877-4.972l22.854,54.595
		c1.981,4.732,1.88,9.455-0.305,14.165C251.801,121.279,248.217,124.678,243.233,126.763z"/>
	<polygon style="fill:#FFFFFF;" points="264.325,117.623 247.963,42.797 282.313,35.286 284.791,46.623 262.509,51.496 
		266.972,71.902 283.252,68.343 285.732,79.68 269.451,83.24 273.913,103.646 296.195,98.774 298.675,110.111 	"/>
	<polygon style="fill:#FFFFFF;" points="378.628,110.04 366.399,108.303 377.171,32.47 411.982,37.415 410.35,48.905 
		387.768,45.697 384.83,66.379 401.33,68.722 399.697,80.212 383.197,77.868 	"/>
	<path style="fill:#FFFFFF;" d="M458.789,55.181c-2.554-4.567-6.425-7.674-11.617-9.317c-5.108-1.618-10.029-1.308-14.76,0.931
		c-4.731,2.239-7.865,5.785-9.401,10.638l-12.615,39.828c-1.524,4.813-1.021,9.501,1.511,14.062
		c2.532,4.561,6.394,7.663,11.586,9.308c5.149,1.631,10.091,1.328,14.822-0.912c4.73-2.238,7.865-5.784,9.401-10.637l12.615-39.828
		C461.856,64.439,461.341,59.749,458.789,55.181z M448.131,65.132l-12.651,39.945c-0.554,1.747-1.678,3.024-3.374,3.833
		c-1.695,0.809-3.478,0.916-5.347,0.324s-3.275-1.71-4.217-3.354c-0.942-1.644-1.137-3.339-0.583-5.086l12.651-39.945
		c0.554-1.746,1.688-3.021,3.404-3.822c1.717-0.803,3.51-0.907,5.379-0.315s3.265,1.707,4.186,3.344
		C448.5,61.693,448.684,63.385,448.131,65.132z"/>
	<path style="fill:#FFFFFF;" d="M509.958,81.337c-1.079-4.668-4.621-8.685-10.624-12.053l-16.986-9.528l-37.441,66.749l10.773,6.043
		l14.104-25.143l6.213,3.484c0.342,0.192,0.664,0.373,0.969,0.544l-7.571,28.808l11.649,6.535l8.366-33.615
		c5.671-1.114,9.831-4.033,12.48-8.757l5.438-9.695C510.037,89.879,510.913,85.421,509.958,81.337z M496.75,88.985l-5.468,9.748
		c-0.896,1.599-2.262,2.63-4.097,3.095c-1.835,0.466-3.606,0.218-5.316-0.741l-6.498-3.645l11.982-21.362l6.498,3.646
		C497.955,82.027,498.922,85.114,496.75,88.985z"/>
	<path style="fill:#FFFFFF;" d="M496.689,161.889c-4.065-3.626-6.334-8.036-6.806-13.233c-0.474-5.197,0.971-9.679,4.332-13.446
		l27.812-31.176c3.389-3.798,7.698-5.75,12.933-5.856c5.231-0.106,9.864,1.639,13.896,5.235c4.063,3.625,6.317,8.037,6.761,13.234
		s-1.017,9.681-4.377,13.447l-5.814,6.518l-9.56-8.527l5.978-6.699c1.22-1.368,1.743-3.002,1.57-4.902
		c-0.174-1.9-0.991-3.503-2.454-4.809c-1.463-1.305-3.141-1.928-5.032-1.87c-1.892,0.06-3.447,0.772-4.667,2.14l-27.894,31.267
		c-1.22,1.367-1.744,2.986-1.574,4.857c0.17,1.87,0.987,3.459,2.45,4.764c1.463,1.306,3.142,1.943,5.036,1.914
		c1.894-0.029,3.451-0.727,4.671-2.094l7.034-7.886l9.559,8.527l-7.115,7.977c-3.389,3.799-7.693,5.742-12.912,5.834
		C505.296,167.195,500.688,165.457,496.689,161.889z"/>
	<polygon style="fill:#FFFFFF;" points="513.678,176.46 574.783,130.28 595.983,158.331 586.725,165.328 572.973,147.132 
		556.308,159.726 566.356,173.021 557.097,180.018 547.049,166.722 530.384,179.317 544.136,197.514 534.877,204.512 	"/>
	<circle style="fill:#FFFFFF;" cx="341.004" cy="341.843" r="206.926"/>
	<g>
		<path style="fill:#FDFDFD;" d="M210.588,214.028c4.206,1.259,8.543,0.927,12.829,0.93c53.614,0.034,107.228-0.022,160.842,0.03
			c32.338,0.031,63.497,5.759,92.867,19.774c7.625,3.638,14.966,7.795,21.971,12.53c2.678,0.892,5.417,1.678,7.191,4.135
			c2.679,1.278,4.582,3.283,5.641,6.072c8.876,7.464,15.478,16.733,21.204,26.699c2.667-0.172,1.458,2.381,2.427,3.404
			c0.574,1.5,2.727,2.719,0.889,4.675c-0.745,6.824-3.555,9.365-10.33,9.135c-7.272-0.247-14.55-0.966-21.766,0.629
			c-0.854,1.424-2.207,1.947-3.768,2.245c-12.056,2.301-23.337,6.578-33.964,12.785c-7.016,4.098-11.861,2.686-16.479-4.008
			c-0.265-0.384-0.464-0.916-1.316-0.871c0.75,3.858,1.93,7.579,2.818,11.362c0.581,2.477,2.278,2.854,4.354,1.626
			c1.634-0.967,3.133-2.151,4.771-3.117c7.465-4.402,15.813,0.185,15.846,8.779c0.032,8.272-1.568,16.372-2.989,24.469
			c-4.214,24.019-10.426,47.487-19.695,70.091c-0.578,1.409-1.175,2.808-1.999,4.091c-3.368,5.239-9.684,6.507-14.83,2.991
			c-6.903-4.717-12.012-3.396-15.381,4.338c-1.701,3.904-3.533,7.483-7.086,10.074c-2.076,1.514-2.448,4.017-2.641,6.485
			c-0.369,4.726-2.042,9.132-5.629,12.104c-5.282,4.376-6.41,10.051-6.51,16.278c-0.12,7.473,0.054,14.949-0.07,22.422
			c-0.097,5.833-2.562,8.94-7.715,10.244c-2.348,0.594-4.486,0.23-6.502-1.028c-1.757-0.861-3.261-2.351-5.416-2.279
			c-7.897-3.985-15.429-8.569-22.359-14.072c-3.211-2.55-7.47-3.997-9.089-8.298c-1.088-1.576-2.631-2.634-4.207-3.661
			c-2.073-1.17-3.757-2.749-5.042-4.758c-8.507-6.681-15.353-14.947-22.181-23.226c-1.77-2.146-3.56-4.289-5.123-6.587
			c-2.433-3.578-5.754-5.013-10.022-4.994c-11.889,0.051-23.779-0.05-35.667,0.05c-5.032,0.043-10.007-1.384-15.092-0.359
			c-1.087,0.219-2.174,0.516-3.282,0.703c-7.002-0.674-14.018-0.315-21.025-0.361c-2.555-0.016-4.99-0.203-7.112-1.794
			c-11.591-0.042-23.181-0.089-34.772-0.123c-9.76-0.029-12.757-4.042-10.054-13.486c2.161-2.869,4.75-5.144,7.939-6.941
			c6.643-3.742,13.445-7.166,20.202-10.68c5.94-4.133,12.607-6.977,18.836-10.598c1.421-0.826,2.925-1.506,4.339-2.352
			c4.426-2.65,4.43-2.655,2.223-7.295c-2.693-5.663-1.016-10.681,4.729-14.147c0.871-0.525,1.8-0.939,2.758-1.264
			c9.575-3.251,16.858-9.405,22.79-17.48c6.793-9.247,12.722-18.756,15.082-30.302c2.063-10.096,6.046-19.576,12.104-28.052
			c1.732-2.424,1.667-4.72-0.501-6.812c-5.577-5.379-9.746-11.572-11.663-19.201c-0.645-2.566-2.974-2.787-5.209-2.893
			c-4.916-0.233-9.868,0.468-14.751-0.714c-6.495-1.574-12.421-4.312-17.631-8.499c-2.044-1.643-3.109-4.433-5.974-5.14
			c-1.584-2.569-3.273-5.074-4.571-7.804c-1.454-3.057-3.872-4.487-7.228-4.455c-2.264,0.022-4.501-0.156-6.735-0.628
			c-2.512-0.531-4.862-1.225-6.386-3.499c-3.963-1.695-7.594-3.991-11.263-6.217c-1.135-2.787-3.896-4.194-5.556-6.553
			c-1.743-2.475-3.506-4.924-4.754-7.697c-1.607-3.571-1.284-6.948,1.478-9.771c2.762-2.824,6.136-3.267,9.731-1.676
			C200.073,211.686,205.076,213.719,210.588,214.028z"/>
		<path style="fill:#00499D;" d="M184.294,434.334c24.538-13.354,49.076-26.707,74.358-40.466
			c-7.285-1.868-13.882-2.97-19.941-5.922c0.447-1.633,1.885-1.685,2.943-2.159c43.923-19.659,87.899-39.201,131.751-59.017
			c7.583-3.427,14.595-3.665,22.299-0.598c14.938,5.947,30.089,11.357,45.119,17.074c3.514,1.337,6.563,1.054,9.628-1.217
			c4.959-3.676,10.068-7.151,16.03-11.357c-3.578,32.715-10.866,63.355-23.274,93.353c-3.419-3.98-6.509-7.576-9.985-11.623
			c-0.892,2.942-1.52,5.403-3.994,6.68c-2.291,1.182-4.694,0.833-7.081,0.748c-5.919-0.21-6.472,0.251-7.657,5.874
			c-0.443,2.101-0.218,4.704-3.44,5.139c-1.385,0.187-0.603,1.379-0.411,2.155c0.596,2.401-0.039,4.182-2.35,5.35
			c-4.737,2.397-6.346,6.62-6.551,11.598c-0.29,7.036-2.094,9.675-8.642,12.032c-1.943,0.699-1.813,2.186-2.028,3.645
			c-1.684,11.442-2.2,22.938-1.654,34.489c0.056,1.183,0.741,2.823-0.475,3.471c-1.162,0.62-2.303-0.72-3.362-1.329
			c-27.684-15.927-50.537-37.153-68.821-63.273c-2.017-2.882-4.056-3.783-7.405-3.775c-40.296,0.1-80.591,0.062-120.887,0.06
			c-1.346,0-2.692,0-4.038,0C184.382,434.956,184.338,434.645,184.294,434.334z"/>
		<path style="fill:#00499D;" d="M491.865,277.536c-5.221-5.43-10.582-9.807-16.294-13.764
			c-20.431-14.152-43.397-21.611-67.698-25.468c-14.554-2.31-29.219-3.018-43.944-3.003c-47.405,0.048-94.811-0.03-142.216,0.05
			c-12.256,0.021-21.833-4.678-28.54-15.004c-0.445-0.686-1.163-1.33-0.774-2.672c2.009,0.759,3.96,1.547,5.945,2.236
			c8.627,2.995,17.576,3.559,26.613,3.555c53.236-0.023,106.472-0.035,159.708-0.02c30.938,0.009,60.756,5.475,88.812,18.908
			c19.379,9.279,36.331,21.651,48.443,39.825c1.403,2.105,2.668,4.311,3.866,6.541c0.639,1.188,2.034,2.532,1.31,3.755
			c-0.756,1.278-2.562,0.493-3.87,0.397c-13.449-0.987-26.544,0.815-39.346,4.916c-7.389,2.367-14.443,5.529-21.031,9.62
			c-2.149,1.335-3.261,1.479-4.529-1.082c-1.915-3.869-4.669-7.216-7.69-10.33c-1.437-1.482-2.686-1.988-4.549-0.541
			c-3.402,2.641-6.918,5.141-10.482,7.561c-1.756,1.192-1.79,2.268-0.778,4.041c3.684,6.454,5.831,13.456,6.882,20.797
			c0.208,1.454,0.625,2.926,0.052,4.415c-1.036-0.142-1.098-1.029-1.412-1.662c-10.012-20.223-26.634-31.471-48.546-34.941
			c-24.548-3.888-45.889,2.88-63.497,20.648c-1.35,1.362-3.845,2.725-3.169,4.689c0.571,1.658,3.289,1.438,5.132,1.758
			c9.577,1.662,19.178,1.374,28.784,0.276c0.738-0.084,1.482-0.114,2.495,0.534c-33.716,16.447-67.432,32.895-101.148,49.342
			c-0.166-0.193-0.331-0.387-0.497-0.58c0.772-0.855,1.517-1.736,2.321-2.56c11-11.274,19.186-23.947,22.315-39.814
			c2.774-14.068,9.876-25.938,22.178-34.916c-10.474-3.961-18.242-10.115-22.058-20.376c1.182-0.996,2.1-0.188,3,0.058
			c5.535,1.516,11.158,2.217,16.899,2.21c23.449-0.028,46.899,0.073,70.347-0.032c15.011-0.067,28.817,3.763,41.236,12.212
			c3.296,2.242,6.209,2.322,9.418,0.052c2.064-1.461,4.234-2.809,6.478-3.971c2.871-1.487,3.092-2.552,0.152-4.414
			c-11.137-7.053-23.096-12.067-35.894-15.145c-10.276-2.472-20.711-3.583-31.262-3.597c-34.096-0.044-68.193,0.02-102.289-0.102
			c-12.645-0.045-21.832-6.068-28.521-17.883c5.79,2.113,10.687,3.978,15.856,4.886c5.261,0.924,10.56,1.264,15.893,1.269
			c39.673,0.039,79.361-0.573,119.014,0.34c31.293,0.72,58.534,12.122,79.706,36.068c0.809,0.915,1.402,2.221,3.05,1.251
			C475.157,283.496,483.176,280.456,491.865,277.536z"/>
		<path style="fill:#FEFEFE;" d="M376.577,473.77c-1.178-0.001-1.786-0.684-2.426-1.282c-18.434-17.238-33.807-36.668-43.486-60.246
			c-1.304-3.177-1.297-5.611,0.513-8.764c5.882-10.246,7.751-21.576,7.784-33.278c0.007-2.419-0.967-3.298-3.425-3.254
			c-7.198,0.128-14.4,0.045-21.819,0.045c0.679-1.78,2.114-1.819,3.174-2.267c20.535-8.675,41.11-17.257,61.628-25.973
			c4.005-1.701,7.744-1.616,11.758-0.08c15.143,5.793,30.34,11.443,45.519,17.141c5.79,2.174,11.586,5.665,17.795-1.473
			c-0.976,10.341-2.867,18.965-5.227,27.497c-1.927,6.964-4.282,13.79-7.036,20.467c-0.457,1.109-0.351,3.974-2.377,2.734
			c-1.743-1.067-5.167-2.075-3.729-5.587c1.782-4.35,3.112-8.82,4.162-13.4c0.447-1.949-0.03-3.019-1.742-3.997
			c-12.1-6.916-24.159-13.905-36.224-20.883c-1.719-0.994-3.386-1.502-5.386-0.62c-12.633,5.57-25.295,11.072-37.941,16.611
			c-0.41,0.18-0.75,0.519-1.018,1.529c6.14,0,12.302,0.316,18.413-0.101c4.82-0.329,7.909,1.035,10.424,5.371
			c3.188,5.499,7.824,9.953,12.923,13.797c1.546,1.165,2.103,2.024,1,3.972c-12.385,21.891-20.061,45.32-22.691,70.369
			C377.084,472.687,376.76,473.248,376.577,473.77z"/>
	</g>
</g>
</svg>
