<?xml version="1.0" encoding="iso-8859-1"?>
<!-- Generator: Adobe Illustrator 20.1.0, SVG Export Plug-In . SVG Version: 6.00 Build 0)  -->
<svg version="1.1" id="&#x56FE;&#x5C42;_1" xmlns="http://www.w3.org/2000/svg" xmlns:xlink="http://www.w3.org/1999/xlink" x="0px"
	 y="0px" viewBox="0 0 680.314 680.317" style="enable-background:new 0 0 680.314 680.317;" xml:space="preserve">
<g>
	<g>
		<g>
			<path style="fill:#FFEB00;" d="M680.314,340.153c0,187.862-152.306,340.164-340.149,340.164C152.306,680.317,0,528.015,0,340.153
				C0,152.301,152.306,0,340.165,0C528.009-0.001,680.314,152.301,680.314,340.153z"/>
		</g>
		<g>
			<path style="fill:#E5BF00;" d="M340.164,575.97c-63.003,0-122.232-24.528-166.775-69.067
				c-44.543-44.538-69.074-103.759-69.074-166.753c0-62.991,24.531-122.213,69.074-166.755
				c44.545-44.544,103.774-69.075,166.775-69.075c62.993,0,122.216,24.531,166.758,69.075
				c44.542,44.543,69.072,103.765,69.072,166.755c0,62.993-24.53,122.214-69.072,166.753
				C462.382,551.442,403.159,575.97,340.164,575.97z M340.164,114.43c-60.301,0-116.993,23.479-159.63,66.111
				c-42.638,42.633-66.12,99.316-66.12,159.608c0,60.297,23.482,116.985,66.12,159.622c42.638,42.637,99.33,66.118,159.63,66.118
				c60.288,0,116.97-23.481,159.604-66.118c42.635-42.638,66.116-99.326,66.116-159.622c0-60.291-23.48-116.974-66.116-159.608
				C457.135,137.909,400.453,114.43,340.164,114.43z"/>
			<path style="fill:#040000;" d="M340.165,105.82c129.42,0,234.33,104.92,234.33,234.33c0,129.42-104.91,234.32-234.33,234.32
				c-129.44,0-234.35-104.9-234.35-234.32C105.815,210.74,210.725,105.82,340.165,105.82 M340.165,567.39
				c125.48,0,227.22-101.74,227.22-227.24c0-125.49-101.74-227.22-227.22-227.22c-125.51,0-227.25,101.73-227.25,227.22
				C112.915,465.65,214.655,567.39,340.165,567.39 M340.165,102.82c-32.043,0-63.129,6.276-92.393,18.653
				c-28.264,11.954-53.647,29.066-75.443,50.862c-21.796,21.795-38.908,47.176-50.862,75.437
				c-12.376,29.261-18.652,60.341-18.652,92.378c0,32.039,6.275,63.12,18.652,92.38c11.954,28.261,29.066,53.64,50.862,75.434
				c21.796,21.793,47.179,38.904,75.443,50.856c29.264,12.375,60.349,18.65,92.393,18.65c32.039,0,63.121-6.275,92.382-18.65
				c28.262-11.952,53.642-29.063,75.437-50.856c21.795-21.794,38.907-47.173,50.86-75.434c12.376-29.26,18.651-60.342,18.651-92.38
				c0-32.037-6.275-63.117-18.651-92.378c-11.953-28.261-29.065-53.642-50.86-75.437c-21.795-21.796-47.176-38.908-75.437-50.862
				C403.285,109.096,372.203,102.82,340.165,102.82L340.165,102.82z M340.165,564.39c-30.276,0-59.644-5.928-87.289-17.621
				c-26.703-11.294-50.686-27.463-71.281-48.058s-36.765-44.576-48.059-71.278c-11.692-27.643-17.621-57.009-17.621-87.283
				c0-30.271,5.929-59.635,17.621-87.275c11.294-26.7,27.464-50.679,48.059-71.272s44.578-36.761,71.281-48.054
				c27.645-11.691,57.013-17.619,87.289-17.619c30.268,0,59.631,5.928,87.271,17.619c26.699,11.293,50.679,27.461,71.272,48.053
				c20.594,20.593,36.762,44.573,48.056,71.272c11.692,27.641,17.62,57.005,17.62,87.276c0,30.273-5.928,59.639-17.62,87.283
				c-11.294,26.702-27.462,50.683-48.056,71.278c-20.594,20.595-44.573,36.764-71.272,48.058
				C399.795,558.462,370.433,564.39,340.165,564.39L340.165,564.39z"/>
		</g>
		<g>
			<path style="fill:#E1002A;" d="M340.165,11.33c-181.61,0-328.83,147.22-328.83,328.82s147.22,328.84,328.83,328.84
				c181.6,0,328.81-147.24,328.81-328.84S521.765,11.33,340.165,11.33z M340.165,567.39c-125.51,0-227.25-101.74-227.25-227.24
				c0-125.49,101.74-227.22,227.25-227.22c125.48,0,227.22,101.73,227.22,227.22C567.385,465.65,465.645,567.39,340.165,567.39z"/>
		</g>
	</g>
	<g>
		<circle style="fill:#FFEB00;stroke:#000000;stroke-width:3.3639;stroke-miterlimit:3.8635;" cx="62.233" cy="336.842" r="45.28"/>
		<circle style="fill:#E1002A;" cx="62.233" cy="336.843" r="38.054"/>
		<path style="fill:#FFEB00;" d="M79.835,364.693c-4.083,2.284-10.965,4.671-17.261,4.671c-0.245,0-0.485-0.019-0.728-0.01
			c-1.949,0.068-1.974-1.247-0.686-4.714c1.981-5.332,3.151-14.041,2.763-22.782c-0.433-9.675-4.351-17.857-5.521-21.235
			c-1.168-3.381,0.78-3.771,2.6-4.159c1.822-0.39,4.246-0.898,5.46-1.27c2.237-0.678,2.99-1.072,4.941-1.591
			c1.952-0.52,4.548-0.258,5.718,1.823c1.168,2.08,8.51,12.782,8.51,30.591C85.63,351.54,84.053,362.331,79.835,364.693z"/>
		<path style="fill:#FFEB00;" d="M46.276,305.102c4.777-3.023,10.396-4.126,16.298-4.126c3.892,0,7.618,0.68,11.112,1.844
			c1.287,0.428,2.066,2.505,2.066,3.548c0,1.038-0.901,3.411-4.952,4.674c-4.051,1.265-9.768,3.118-14.432,3.118
			c-4.663,0-11.669-1.506-11.669-5.955C44.699,306.838,45.062,305.869,46.276,305.102z"/>
		<path style="fill:#FFEB00;" d="M31.866,320.11c1.711-4.091,4.661-7.525,7.929-10.447c0,0,1.64-1.347,2.292-1.865
			c0,0,0.078,2.448,1.714,4.293c1.63,1.845,4.782,3.247,8.032,4.157c0,0,1.559,0.909,2.471,2.339
			c1.385,2.176,6.296,13.994,6.499,20.928c0.066,2.353-1.914,4.298-5.065,3.851c-3.146-0.448-8.62-0.315-17.426-8.529
			C36.364,333.015,29.708,325.271,31.866,320.11z"/>
		<path style="fill:#FFEB00;" d="M52.877,367.968c-14.051-4.551-24.496-17.282-24.496-32.798c0-2.298,0.444-4.459,0.658-5.651
			c0.261-1.457,1.363-1.635,1.864-0.629c0.512,1.005,2.917,6.177,8.477,10.752c5.563,4.575,11.635,7.067,20.169,7.282
			c0.992,0.022,1.514,1.58,1.514,3.012c0,1.43-0.911,12.218-4.422,16.227C55.733,367.204,54.832,368.601,52.877,367.968z"/>
		<path style="fill:#FFEB00;" d="M88.62,357.229c4.753-4.703,8.147-13.148,8.147-22.06c0-3.453-0.509-6.787-1.464-9.93
			c0,0-0.799-1.436-1.578-0.217c-0.556,0.877-1.305,1.765-1.984,2.959c-0.679,1.185-4.375,3.993-4.029,6.205
			c1.3,8.351,0.125,19.498-0.263,21.317C87.06,357.325,87.632,358.202,88.62,357.229z"/>
		<path style="fill:#FFEB00;" d="M91.858,317.505c-2.781-4.92-6.744-9.403-11.876-11.774c-0.591-0.272-1.501-0.296-1.501,1.158
			c0,0.811-0.4,2.09-0.415,2.873c-0.014,0.782-0.364,2.455,0.677,3.754c1.041,1.302,5.64,9.361,6.761,13.91
			c0.253,1.031,0.525,2.101,2.21,1.17c1.683-0.932,3.693-5.218,4.342-6.494C92.522,321.188,92.494,318.63,91.858,317.505z"/>
	</g>
	<g>
		
			<circle style="fill:#FFEB00;stroke:#000000;stroke-width:3.3639;stroke-miterlimit:3.8635;" cx="619.775" cy="336.842" r="45.28"/>
		<circle style="fill:#E1002A;" cx="619.775" cy="336.843" r="38.054"/>
		<path style="fill:#FFEB00;" d="M637.377,364.693c-4.083,2.284-10.965,4.671-17.261,4.671c-0.245,0-0.485-0.019-0.728-0.01
			c-1.949,0.068-1.974-1.247-0.686-4.714c1.981-5.332,3.151-14.041,2.763-22.782c-0.433-9.675-4.351-17.857-5.521-21.235
			c-1.168-3.381,0.78-3.771,2.599-4.159c1.822-0.39,4.246-0.898,5.46-1.27c2.237-0.678,2.99-1.072,4.941-1.591
			c1.952-0.52,4.548-0.258,5.718,1.823c1.168,2.08,8.51,12.782,8.51,30.591C643.172,351.54,641.594,362.331,637.377,364.693z"/>
		<path style="fill:#FFEB00;" d="M603.818,305.102c4.777-3.023,10.396-4.126,16.298-4.126c3.892,0,7.618,0.68,11.112,1.844
			c1.287,0.428,2.066,2.505,2.066,3.548c0,1.038-0.901,3.411-4.952,4.674c-4.051,1.265-9.768,3.118-14.432,3.118
			c-4.663,0-11.669-1.506-11.669-5.955C602.24,306.838,602.603,305.869,603.818,305.102z"/>
		<path style="fill:#FFEB00;" d="M589.408,320.11c1.711-4.091,4.661-7.525,7.929-10.447c0,0,1.64-1.347,2.292-1.865
			c0,0,0.078,2.448,1.714,4.293c1.63,1.845,4.782,3.247,8.032,4.157c0,0,1.559,0.909,2.471,2.339
			c1.385,2.176,6.296,13.994,6.499,20.928c0.066,2.353-1.914,4.298-5.065,3.851c-3.146-0.448-8.62-0.315-17.426-8.529
			C593.906,333.015,587.25,325.271,589.408,320.11z"/>
		<path style="fill:#FFEB00;" d="M610.419,367.968c-14.051-4.551-24.496-17.282-24.496-32.798c0-2.298,0.444-4.459,0.658-5.651
			c0.261-1.457,1.363-1.635,1.864-0.629c0.512,1.005,2.917,6.177,8.477,10.752c5.563,4.575,11.635,7.067,20.169,7.282
			c0.992,0.022,1.514,1.58,1.514,3.012c0,1.43-0.911,12.218-4.422,16.227C613.275,367.204,612.374,368.601,610.419,367.968z"/>
		<path style="fill:#FFEB00;" d="M646.162,357.229c4.753-4.703,8.147-13.148,8.147-22.06c0-3.453-0.509-6.787-1.464-9.93
			c0,0-0.799-1.436-1.578-0.217c-0.556,0.877-1.305,1.765-1.984,2.959c-0.679,1.185-4.375,3.993-4.029,6.205
			c1.3,8.351,0.125,19.498-0.263,21.317C644.602,357.325,645.174,358.202,646.162,357.229z"/>
		<path style="fill:#FFEB00;" d="M649.399,317.505c-2.781-4.92-6.744-9.403-11.876-11.774c-0.591-0.272-1.501-0.296-1.501,1.158
			c0,0.811-0.4,2.09-0.415,2.873c-0.014,0.782-0.364,2.455,0.677,3.754c1.041,1.302,5.64,9.361,6.761,13.91
			c0.253,1.031,0.525,2.101,2.21,1.17c1.683-0.932,3.693-5.218,4.342-6.494C650.063,321.188,650.035,318.63,649.399,317.505z"/>
	</g>
	<path style="fill:#FFEB00;" d="M155.937,150.265l25.609,15.212l9.49-9.4l-30.012-17.299c0.49-5.758-1.17-10.561-4.982-14.408
		l-7.823-7.898c-3.897-3.934-7.941-6.004-12.131-6.21c-4.784-0.248-9.621,2.051-14.512,6.895l-13.837,13.706l53.858,54.374
		l8.776-8.692l-20.289-20.482l5.062-5.014C155.426,150.771,155.689,150.511,155.937,150.265z M147.342,142.702l-5.293,5.243
		l-17.237-17.401l5.293-5.243c3.343-3.311,6.577-3.39,9.7-0.237l7.866,7.941c1.29,1.302,1.906,2.898,1.847,4.79
		C149.461,139.688,148.735,141.322,147.342,142.702z"/>
	<polygon style="fill:#FFEB00;" points="193.97,154.005 151.572,90.217 180.854,70.753 187.278,80.418 168.282,93.044 
		179.845,110.441 193.725,101.216 200.149,110.881 186.27,120.106 197.833,137.503 216.828,124.877 223.253,134.542 	"/>
	<path style="fill:#FFEB00;" d="M255.209,100.944l-15.287-36.971c-1.914-4.629-5.297-7.878-10.149-9.75
		c-4.852-1.871-9.775-1.774-14.767,0.29l-17.938,7.417l29.268,70.781l17.938-7.417c4.953-2.048,8.496-5.451,10.629-10.212
		C257.036,110.323,257.138,105.61,255.209,100.944z M244.103,110.857c-0.743,1.739-2.02,2.983-3.832,3.732l-6.885,2.847
		l-20.398-49.332l6.885-2.848c1.771-0.732,3.541-0.758,5.307-0.079c1.766,0.681,3,1.866,3.7,3.56l15.311,37.028
		C244.874,107.421,244.845,109.118,244.103,110.857z"/>
	<path style="fill:#FFEB00;" d="M368.884,37.693c-3.556-3.794-8.03-5.849-13.424-6.161l-19.378-1.121l-4.427,76.465l19.378,1.122
		c5.35,0.31,10.021-1.214,14.012-4.572c3.992-3.357,6.134-7.558,6.425-12.599l2.312-39.94
		C374.072,45.886,372.439,41.488,368.884,37.693z M361.767,50.374l-2.315,40.001c-0.104,1.789-0.869,3.305-2.293,4.548
		c-1.426,1.243-3.116,1.808-5.073,1.694l-7.438-0.431l3.086-53.294l7.438,0.431c1.914,0.11,3.519,0.856,4.813,2.236
		C361.279,46.941,361.873,48.544,361.767,50.374z"/>
	<polygon style="fill:#FFEB00;" points="375.246,109.343 389.973,34.179 424.478,40.939 422.246,52.327 399.863,47.943 
		395.847,68.442 412.201,71.646 409.97,83.034 393.615,79.83 389.599,100.329 411.983,104.715 409.751,116.104 	"/>
	<polygon style="fill:#FFEB00;" points="426.7,122.027 442.562,45.738 454.517,50.708 441.108,109.74 473.568,58.628 485.53,63.601 
		442.391,128.55 	"/>
	
		<rect x="446.8" y="102.423" transform="matrix(0.5369 -0.8436 0.8436 0.5369 133.0065 459.5064)" style="fill:#FFEB00;" width="76.53" height="12.352"/>
	<polygon style="fill:#FFEB00;" points="499.854,168.767 474.434,146.705 524.599,88.906 533.927,97.003 491.289,146.13 
		507.38,160.095 	"/>
	<path style="fill:#FFEB00;" d="M542.387,191.781c-4.175,3.322-8.692,4.929-13.554,4.821c-3.255-0.024-6.418-1.164-9.489-3.419
		c-1.646-1.207-3.268-2.846-4.862-4.917c-2.949-3.833-4.507-7.693-4.671-11.579c-0.168-3.225,0.526-6.412,2.085-9.562
		c1.557-3.15,3.87-6.07,6.938-8.761l7.803,8.839c-3.218,3.136-5.01,6.108-5.376,8.92c-0.298,2.097,0.17,3.881,1.405,5.351
		c1.711,2.091,4.012,3.042,6.901,2.854c1.44-0.065,3.033-0.768,4.778-2.109c2.519-1.938,4.079-5.092,4.68-9.456
		c0.224-3.252,0.56-8.128,1.009-14.63c0.441-5.508,1.308-9.83,2.598-12.966c1.5-3.464,3.784-6.376,6.854-8.737
		c5.522-4.249,11.234-5.483,17.132-3.698c3.599,1.134,6.793,3.515,9.582,7.14c2.684,3.487,4.256,7.034,4.717,10.638
		c0.357,2.803-0.021,5.582-1.137,8.338c-1.117,2.755-2.906,5.272-5.365,7.55l-8.812-8.146c2.271-2.189,3.624-4.438,4.056-6.749
		c0.309-1.668-0.188-3.348-1.488-5.039c-1.382-1.796-3.174-2.589-5.376-2.379c-1.778,0.159-3.556,0.922-5.33,2.287
		c-2.776,2.136-4.617,5.586-5.522,10.352c-0.354,1.811-0.529,4.254-0.524,7.33c-0.021,3.646-0.109,6.104-0.261,7.375
		c-0.399,4.154-1.191,7.732-2.376,10.733c-0.555,1.417-1.121,2.649-1.7,3.7C545.635,188.457,544.071,190.431,542.387,191.781z"/>
	<path style="fill:#E1002A;" d="M304.937,467.158c-9.502-2.147-19.101-4.738-27.964-8.691
		c-34.971-15.598-49.861-47.685-38.251-83.076c3.348-10.205,8.963-19.771,14.322-29.184c7.198-12.645,13.176-25.473,13.33-43.071
		c-6.58,5.431-11.414,9.422-16.243,13.407c2.643-21.813,5.228-43.139,7.814-64.475 M393.563,294.121
		c-4.3,0.277-8.665-0.458-14.263-0.818c17.786-14.742,33.81-28.024,49.717-41.21c2.575,21.37,5.141,42.669,7.767,64.461
		c-4.893-4.073-9.7-8.075-16.082-13.387c0,4.325-0.503,6.237,0.079,7.724c5.109,13.06,9.197,26.715,15.937,38.893
		c10.291,18.595,18.301,37.431,14.369,58.982c-5.647,30.947-27.378,46.879-55.485,55.128c-13.809,4.053-28.372,5.539-43.379,8.333
		c0,18.027,0,36.37,0,55.401c63.613,7.149,143.889-51.563,170.539-123.801c30.273-82.055,0.017-174.721-73.094-223.873
		c-72.298-48.605-170.13-41.582-234.006,16.8c-66.109,60.422-82.13,155.99-39.216,233.935 M374.408,256.911
		c-7.835-2.489-14.568-4.627-22.14-7.033c0,68.809,0,136.143,0,204.657c23.313-0.49,44.742-4.357,63.475-17.625
		c14.391-10.193,22.736-24.68,19.705-42.141c-2.29-13.193-7.632-26.353-14.047-38.212"/>
	<circle style="fill:#E1002A;" cx="343.488" cy="340.489" r="190.006"/>
	<g>
		<path style="fill:#040000;" d="M332.565,365.841c-2.092,0-4.113-0.665-5.848-1.923c-5.26-3.816-2.945-9.355-2.184-11.176
			c0.11-0.262,0.22-0.521,0.311-0.774c0.727-2.012,1.074-4.051,1.155-6.092c-0.575,1.979-1.689,3.715-3.289,5.098
			c-3.875,3.68-8.572,7.645-15.269,8.526c-0.872,0.135-1.756,0.203-2.627,0.203c-5.454,0-9.643-2.551-13.338-4.802
			c-0.423-0.257-0.845-0.515-1.268-0.768c-2.246-1.339-4.397-2.785-6.478-4.183c-0.869-0.583-1.737-1.167-2.611-1.742
			c-1.241-0.723-2.839-0.821-5.32-0.919c-1.782-0.071-3.797-0.151-5.877-0.647l-0.19-0.045c-0.207-0.052-0.415-0.107-0.621-0.167
			c-7.283-0.674-11.919-5.244-12.153-12.052c-0.107-3.103,0.844-10.513,11.957-12.311c3.332-0.539,6.126-1.026,8.793-1.886
			c3.163-2.044,4.96-4.425,5.613-7.438c0.022-3.059-0.833-6.147-2.118-9.805c-2.979-8.475-2.173-16.903,2.395-25.056
			c-0.68-0.006-1.393-0.06-2.121-0.159c-1.751-0.241-4.044-0.632-6.276-1.519c-16.639-6.612-32.412-16.407-48.218-29.941
			c-0.77-0.658-1.271-1.365-1.62-1.894l-4.015-3.227c-2.924-1.999-5.148-4.435-6.777-6.37l-9.304-9.989l-1.769-2.384l-0.188-0.15
			c-2.067-1.237-3.211-2.994-3.988-4.189c-0.236-0.363-0.459-0.705-0.635-0.922l-3.565-4.247c-1.038-0.831-2.249-2.023-3.04-3.738
			c-1.213-1.46-2.429-2.917-3.646-4.374c-3.457-4.139-7.031-8.421-10.47-12.728c-2.219-2.78-3.163-5.853-2.661-8.654
			c0.442-2.464,1.979-4.599,4.327-6.013c1.495-0.901,3.082-1.358,4.714-1.358c3.615,0,6.902,2.284,8.791,6.109
			c2.195,4.447,5.453,8.714,10.251,13.429l1.252,1.229c6.21,6.106,12.077,11.873,19.237,16.189c2.873,1.733,5.846,3.265,8.993,4.888
			c3.581,1.846,7.283,3.754,10.842,5.991l2.165,1.37c4.987,3.165,9.295,5.899,14.541,7.705c3.794,1.305,7.551,1.966,11.166,1.966
			c6.067,0,11.813-1.854,17.078-5.509c12.56-8.723,28.469-12.963,48.637-12.963c3.854,0,7.858,0.145,12.241,0.445
			c8.647,0.592,16.694,2.09,23.915,4.454c5.114,1.673,9.526,4.116,13.792,6.478c2.258,1.25,4.391,2.431,6.631,3.511
			c4.506,2.173,9.227,3.275,14.033,3.275c5.524,0,10.993-1.437,16.254-4.271c14.211-7.653,25.711-14.522,36.175-21.605l2.057-1.597
			l0.991-0.803c9.228-7.465,17.944-14.516,22.955-24.771c1.689-3.456,4.804-5.518,8.334-5.518c1.787,0,3.568,0.554,5.148,1.603
			c2.053,1.364,3.415,3.386,3.837,5.696c0.479,2.624-0.252,5.454-2.057,7.966c-2.796,3.889-5.757,7.491-8.799,11.148
			c-1.395,1.677-2.783,3.356-4.17,5.035c-10.875,13.156-22.121,26.762-35.914,38.034c-1.419,1.161-2.82,2.341-4.22,3.521
			c-3.087,2.601-6.278,5.289-9.681,7.778c-2.622,1.917-5.274,3.721-7.885,5.364c-1.068,0.673-2.181,1.24-3.257,1.788
			c-1.307,0.665-2.658,1.353-3.433,2.012c-2.421,2.057-5.094,3.219-7.453,4.246c-1.212,0.527-2.358,1.025-3.351,1.591l-0.169,0.093
			c-3.594,1.874-8.068,4.207-12.985,5.415c-1.656,0.407-3.232,0.614-4.684,0.614c0,0-0.095-0.001-0.142-0.001
			c0.822,1.606,1.408,3.224,1.939,4.69c0.121,0.334,0.242,0.667,0.365,1c3.005,5.942,2.062,11.69,0.999,15.621l-0.066,0.467
			c-0.309,2.206-0.73,5.224-2.69,7.822c0.089,0.916,0.06,1.754,0.008,2.451c-0.345,4.624,1.176,7.729,4.925,10.015l4.336,1.632
			c2.619,0.019,5.534,0.135,8.542,1.403c5.715,2.413,8.501,6.3,8.281,11.553c-0.224,5.389-3.474,9.478-8.916,11.216
			c-2.689,0.86-5.609,1.314-8.442,1.314h-0.175c-4.566,0-8.51,1.626-13.73,5.612c-4.465,3.408-9.779,7.046-16.358,7.046
			c-2.504,0-5.025-0.536-7.495-1.593c-6.934-2.741-11.51-6.845-13.967-12.532c-0.025,0.986-0.015,1.97,0.03,2.954
			c0.911,2.14,1.591,4.409,2.072,6.903c0.863,4.468-1.131,7.964-5.472,9.59l-0.23,0.086l-0.237,0.064
			c-0.995,0.268-2.002,0.404-2.993,0.404c-2.347,0-4.553-0.72-6.695-2.195c-0.151,0.07-0.311,0.149-0.455,0.221
			C337.022,365.095,334.795,365.841,332.565,365.841z"/>
		<path style="fill:#FFEB00;" d="M496.98,181.919c-2.293-1.523-4.79-0.625-6.019,1.889c-10.032,20.53-33.089,33.058-51.923,44.205
			c-14.89,8.812-30.439,16.117-47.395,7.94c-6.733-3.247-12.611-7.384-19.788-9.733c-7.327-2.398-14.988-3.685-22.668-4.21
			c-19.841-1.358-40.798-0.053-57.593,11.61c-16.282,11.307-33.937,4.951-49.506-4.153c-7.732-4.521-15.116-9.607-22.933-13.987
			c-7.133-3.996-13.533-10.517-19.374-16.246c-4.445-4.368-8.484-9.202-11.257-14.819c-1.26-2.552-3.611-4.209-6.242-2.624
			c-3.02,1.819-2.118,4.777-0.3,7.054c11.507,14.418,23.584,28.908,36.808,42c13.006,12.877,27.935,26.433,44.603,34.278
			c4.564,2.148,9.01,4.439,13.707,6.306c1.6,0.636,3.358,0.966,5.074,1.202c4.29,0.589,6.956-1.096,7.923-5.54
			c0.733-3.371-0.013-6.488-1.142-9.782c3.432,1.306,4.138,2.292,4.495,5.813c0.65,6.414-2.22,11.767-5.228,17.031
			c-3.851,6.74-4.767,13.691-2.169,21.082c1.37,3.896,2.534,7.86,2.399,12.068c-0.961,5.245-4.12,8.867-8.534,11.563
			c-3.311,1.14-6.724,1.721-10.182,2.28c-3.912,0.632-7.801,2.348-7.639,7.057c0.159,4.622,3.422,6.88,7.987,7.147
			c0.295,0.1,0.592,0.185,0.891,0.26c0.012,0.003,0.025,0.006,0.038,0.008c4.224,1.044,8.86-0.176,12.836,2.233
			c2.993,1.965,5.921,4.036,8.993,5.868c4.269,2.546,8.429,5.557,13.871,4.692c5.199-0.665,8.953-3.83,12.555-7.258
			c1.199-1.004,1.857-2.291,2.007-3.843c0.255-0.388,0.62-0.744,0.747-1.17c3.09-10.373-1.884-18.06-8.437-25.215
			c-1.218-1.527-2.436-3.055-3.655-4.582c-0.741-1.22-1.482-2.44-2.223-3.66c-3.428-7.187-4.875-14.78-4.661-22.714
			c1.084-1.232-0.132-4.014,2.138-4.139c2.172-0.119,2.014,2.33,2.643,3.817c0.178,0.42,0.46,0.796,0.695,1.192
			c0.324,3.381,1.492,6.48,3.134,9.422c2.046,5.228,5.265,9.78,8.324,14.423c0.093,0.768,0.271,1.488,1.052,1.869
			c2.793,6.701,6.274,13.117,8.191,20.179c1.891,6.966,3.005,13.924,0.457,20.981c-0.733,2.029-2.294,4.339,0.054,6.042
			c2.058,1.493,4.502,1.125,6.604-0.478c1.522-0.78,3.056-1.504,4.845-1.026c1.906,1.702,4.013,2.742,6.655,2.03
			c1.771-0.663,2.655-1.591,2.228-3.8c-0.45-2.331-1.115-4.523-2.105-6.649c-0.349-5.25,0.198-10.388,1.488-15.505
			c2.66-10.557,7.98-19.895,13.104-29.334c2.085-2.519,3.615-5.344,4.645-8.444c0.837-2.011,1.674-4.022,2.512-6.033
			c0.522-1.827,0.933-3.696,1.6-5.468c0.526-1.396,0.785-3.514,2.878-3.18c1.829,0.292,1.426,2.214,1.536,3.571
			c0.4,4.929-0.177,9.809-0.844,14.681c-0.101,0.585-0.203,1.169-0.304,1.754c-0.111,0.156-0.178,0.324-0.231,0.495
			c-1.262,2.705-2.523,5.41-3.785,8.115c-4.12,5.339-9.073,10.058-12.081,16.225c-2.607,5.346-3.567,10.786-0.941,16.431
			c2.11,5.302,6.31,8.287,11.4,10.286c7.479,3.238,13.318-0.62,18.774-4.785c5.083-3.881,10.306-6.712,16.886-6.668
			c2.344,0.016,4.785-0.356,7.016-1.069c3.038-0.971,5.197-3.001,5.344-6.533c0.153-3.676-2.207-5.361-5.143-6.6
			c-2.402-1.013-4.951-0.993-7.492-1.004c-1.874-0.705-3.747-1.41-5.621-2.116c-5.81-3.353-8.314-8.43-7.82-15.051
			c0.096-1.292,0.037-2.53-0.674-3.661c2.917-1.791,3.072-4.832,3.507-7.747c1.181-4.236,1.483-8.425-0.665-12.484
			c-1.337-3.554-2.338-7.307-5.704-9.664c-0.135-0.596-0.271-1.193-0.406-1.789c0.41-2.639-1.123-4.912-1.397-7.427
			c-0.443-4.062,0.129-7.675,4.321-10.588c-0.393,3.039-0.862,5.364-0.965,7.705c-0.312,7.092,3.251,10.076,10.157,8.379
			c13.902-3.416,27.901-13.32,39.309-21.685c19.677-14.428,34.989-32.862,50.484-51.488c2.95-3.546,5.886-7.118,8.576-10.86
			C498.903,186.244,499.392,183.521,496.98,181.919z"/>
		<path style="fill:#040000;" d="M339.142,424.096c-5.345,0-10.741-1.846-16.037-5.486c-4.49-3.085-8.732-6-13.442-7.992
			c-5.31-2.249-8.302-6.422-8.485-11.797c-8.148,3.728-16.777,5.613-25.741,5.613c-5.098,0-10.379-0.615-15.695-1.827
			c-8.432-1.923-15.189-6.529-19.562-13.325c-3.486-4.402-5.047-9.24-4.518-14.012c0.507-4.575,2.901-8.734,6.93-12.053
			c0.495-0.619,0.923-1.552,0.701-3.692c-0.762-7.353,1.732-14.128,7.212-19.595l0.164-0.167c0.77-0.792,2.574-2.649,5.481-2.649
			c0.578,0,1.159,0.077,1.725,0.228c2.08,0.555,4.657,2.181,5.123,6.774c0.629,6.189,3.412,11.854,6.359,17.852
			c0.425,0.866,0.85,1.731,1.27,2.599c0.381,0.79,0.865,1.613,1.376,2.485c0.198,0.338,0.397,0.677,0.592,1.017l2.637,3.343
			c4.146,4.524,8.945,6.634,15.089,6.634c3.646,0,7.77-0.691,13.373-2.24c0.605-0.167,1.195-0.318,1.772-0.464
			c2.36-0.601,3.648-0.959,4.852-1.917c1.881-1.496,3.927-2.286,5.916-2.286c0.787,0,1.549,0.12,2.275,0.358
			c1.342-1.665,3.391-2.636,5.875-2.687c0.374-3.163,2.409-6.379,7.282-7.86c2.849-0.865,5.298-1.267,7.709-1.267
			c1.513,0,3.011,0.169,4.459,0.503c1.837,0.15,4.931,0.474,7.287,3.055c2.29,1.625,3.209,3.725,3.56,5.623
			c2.756,0.105,4.516,1.14,5.636,2.369c0.562-0.132,1.126-0.194,1.675-0.194c2.237,0,4.228,0.97,5.682,1.677
			c4.95,2.41,10.413,4.044,16.702,4.993c1.508,0.228,2.974,0.342,4.358,0.342c7.378,0,13.133-3.299,17.596-10.085
			c4.367-6.642,7.493-14.117,9.557-22.853c0.005-0.057,0.014-0.214,0.028-0.374c0.525-5.959,4.222-7.227,6.379-7.452
			c0.258-0.026,0.514-0.039,0.766-0.039c3.877,0,6.157,2.862,7.381,4.399l0.159,0.2c1.859,2.318,4.294,5.876,4.693,10.622
			c1.123,2.871,0.947,5.581,0.802,7.809c-0.041,0.628-0.08,1.237-0.083,1.783c0.65,0.741,1.267,1.441,1.894,2.081
			c6.579,6.722,7.345,16.777,1.863,24.453c-7.595,10.635-18.637,15.805-33.756,15.805c-0.001,0-0.001,0-0.002,0
			c-0.843,0-1.694-0.017-2.547-0.047c-9.889-0.357-18.228-2.105-25.578-5.416c-0.116,5.141-2.602,9.101-6.841,10.759
			c-3.891,1.522-7.469,3.802-11.256,6.216c-2.718,1.733-5.528,3.523-8.551,5.081C347.245,423.052,343.175,424.096,339.142,424.096z"
			/>
		<path style="fill:#FFEB00;" d="M431.045,364.207c-0.661-3.478,0.89-7.132-0.839-10.525c-0.042-3.361-1.605-6.104-3.619-8.617
			c-0.988-1.233-2.154-2.828-3.76-2.661c-2.05,0.214-1.613,2.527-1.936,3.894c-2.067,8.749-5.321,16.976-10.265,24.495
			c-6.424,9.77-15.421,13.752-27.018,12.002c-6.336-0.956-12.413-2.643-18.186-5.454c-2.559-1.246-5.252-2.503-5.896,2.062
			c-0.077,0.542-0.587,1.311-1.061,1.465c-4.972,1.613-8.847,4.902-12.804,8.101c-0.818,0.661-2.076,1.434-2.975,0.297
			c-0.851-1.076,0.168-2.145,0.873-2.891c0.968-1.025,2.083-2.019,3.325-2.653c2.397-1.225,4.915-2.217,7.406-3.252
			c1.99-0.827,3.213-2.244,2.847-4.407c-0.402-2.371-2.389-2.069-4.162-2.037c-1.093,0.02-2.19-0.144-3.285-0.225
			c-0.099-2.401,0.768-5.096-2.034-6.674c-1.142-1.635-2.906-1.705-4.642-1.847c-3.349-0.862-6.575-0.404-9.853,0.591
			c-2.526,0.767-4.045,2.283-3.64,4.781c0.571,3.524-1.17,3.68-3.8,3.376c-1.58-0.183-3.345-0.222-3.725,1.96
			c-0.305,1.754,0.418,3.17,1.943,4.02c1.102,0.614,2.343,0.977,3.522,1.451c2.666,1.072,5.303,2.206,7.401,4.253
			c1.038,1.013,2.297,2.297,1.012,3.652c-1.204,1.269-2.282-0.229-3.189-0.988c-2.068-1.73-4.179-3.628-6.549-4.943
			c-2.702-1.499-5.404-1.818-7.162-4.718c-0.493-0.814-0.908-1.764-1.754-2.2c-1.198-0.617-2.645,0.096-3.7,0.935
			c-2.595,2.065-5.311,2.445-8.456,3.314c-12.203,3.374-24.06,4.693-33.757-6.023c-0.996-1.263-1.992-2.526-2.988-3.79
			c-0.778-1.38-1.634-2.722-2.322-4.145c-3.438-7.119-7.293-14.087-8.114-22.169c-0.096-0.941-0.248-2.036-1.333-2.326
			c-1.058-0.282-1.747,0.596-2.413,1.26c-4.271,4.26-6.355,9.385-5.729,15.424c0.312,3.011-0.152,5.669-2.235,7.94
			c-6.58,5.196-7.271,12.61-1.805,19.349c3.873,6.154,9.683,9.751,16.518,11.31c15.688,3.577,30.69,1.602,44.572-6.867
			c6.755-4.121,12.085-4.412,16.69-0.335c1.548,1.371,4.686,3.294,3.125,5.056c-1.87,2.11-3.142-1.431-4.547-2.57
			c-3.212-2.606-6.481-2.022-9.884-0.702c-2.763,1.072-4.503,2.92-4.529,6.029c-0.032,3.815,1.939,6.231,5.356,7.677
			c5.163,2.185,9.742,5.324,14.35,8.49c7.131,4.901,14.601,6.31,22.866,2.051c6.925-3.568,12.949-8.643,20.289-11.514
			c2.932-1.147,3.763-4.134,3.545-7.236c-0.219-3.108-2.089-4.82-4.867-5.826c-4.339-1.572-8.123-1.122-11.119,2.752
			c-0.669,0.866-1.748,2.027-2.743,1.257c-1.408-1.09-0.053-2.293,0.646-3.261c3.926-5.432,11.359-7.135,17.47-2.846
			c9.588,6.728,20.315,9.062,31.546,9.468c12.608,0.456,24.056-2.577,31.935-13.608c4.047-5.667,3.499-12.91-1.353-17.867
			C433.123,366.609,432.105,365.388,431.045,364.207z"/>
		<path style="fill:#040000;" d="M342.652,459.631c-8.805,0-17.318-1.111-24.485-2.199l-0.366-0.051
			c-1.202-0.161-3.212-0.43-4.915-1.873c-1.456-1.234-3.45-2.165-5.56-3.15c-3.561-1.662-7.561-3.529-10.552-7.445
			c-1.597-0.142-3.109-0.559-4.527-1.248c-0.197,0.792-0.383,1.59-0.571,2.399c-0.283,1.215-0.563,2.413-0.88,3.599l-0.058,0.22
			c-1.014,3.875-3.22,6.009-6.557,6.342c-0.267,0.026-0.518,0.038-0.761,0.038c-3.171,0-5.541-1.815-7.044-5.395l-0.053-0.125
			c-3.313-7.837-4.787-16.287-4.381-25.114c0.285-6.206,5.098-10.711,11.446-10.711c2.376,0,4.822,0.652,7.076,1.886
			c4.575,2.504,8.479,5.697,12.254,8.786c1.133,0.926,2.264,1.852,3.411,2.755c9.872,7.776,21.483,11.886,33.577,11.886
			c10.395,0,20.587-3.12,29.477-9.023c2.833-1.881,5.501-4.057,8.325-6.36c1.736-1.416,3.532-2.879,5.382-4.28
			c2.01-1.522,4.385-3.244,7.134-4.422c1.937-0.829,3.882-1.251,5.779-1.251c3.172,0,6.076,1.205,8.177,3.392
			c2.318,2.413,3.508,5.873,3.352,9.745c-0.361,8.971-1.658,15.7-4.204,21.819c-0.063,0.149-0.117,0.311-0.175,0.474
			c-1.391,3.912-3.81,5.896-7.189,5.896c0,0,0,0-0.001,0c-0.317,0-0.651-0.02-1.003-0.065c-5.27-0.671-6.386-5.552-6.753-7.156
			l-0.092-0.394c-0.233-0.958-0.446-1.922-0.661-2.892c-0.154-0.694-0.305-1.381-0.464-2.06c-1.318,0.609-2.786,1.035-4.423,1.166
			c-0.028,0.039-0.056,0.079-0.084,0.118c-0.791,1.109-1.873,2.628-3.716,3.633c-0.851,0.463-1.695,0.929-2.539,1.395
			c-7.62,4.208-15.499,8.56-25.542,9.363C347.952,459.528,345.317,459.631,342.652,459.631z"/>
		<path style="fill:#FFEB00;" d="M398.38,447.874c2.667-6.409,3.538-13.2,3.814-20.05c0.251-6.242-4.398-9.413-10.146-6.952
			c-2.165,0.927-4.158,2.359-6.054,3.794c-4.697,3.555-9.073,7.575-13.966,10.823c-21.491,14.271-48.69,12.953-69.081-3.106
			c-4.875-3.84-9.479-8.075-14.953-11.071c-5.214-2.854-10.678-0.625-10.916,4.55c-0.362,7.872,0.89,15.564,3.982,22.878
			c0.485,1.148,0.994,2.526,2.609,2.365c1.574-0.156,1.824-1.523,2.158-2.774c1.147-4.284,1.765-8.725,4.078-13.682
			c2.258,3.431,4.874,5.341,8.589,5.162c0.899-0.043,1.368,0.518,1.839,1.234c3.781,5.757,10.99,6.397,15.879,10.539
			c0.656,0.556,1.791,0.621,2.727,0.763c10.318,1.565,20.547,2.698,31.136,1.852c9.978-0.797,17.804-5.669,26.029-10.147
			c1.04-0.566,1.74-1.811,2.507-2.81c0.588-0.766,1.052-1.602,2.202-1.539c3.637,0.2,6.181-1.9,8.606-4.672
			c1.906,4.272,2.522,8.366,3.492,12.357c0.374,1.54,0.604,3.422,2.496,3.663C397.5,451.319,397.799,449.269,398.38,447.874z"/>
		<path style="fill:#040000;" d="M367.906,508.916c-5.081,0-8.96-2.602-12.477-5.365c-5.65-2.792-11.106-4.208-16.224-4.208
			c-6.002,0-11.676,1.859-17.345,5.684c-2.396,1.616-6.128,3.764-10.865,3.764c-0.459,0-0.924-0.021-1.393-0.064
			c-5.619-0.508-9.034-2.996-10.15-7.394c-0.956-3.77,0.067-7.371,2.757-10.082c-6.134-1.613-10.427-6.072-13.814-14.078
			l-6.231-14.731l13.648,8.34c3.08,1.881,5.95,2.25,9.866,2.25c0.68,0,1.359-0.011,2.036-0.02c0.726-0.011,1.45-0.021,2.174-0.021
			c0.645,0,1.215,0.035,1.772,0.073c0.175,0.012,0.348,0.024,0.519,0.033c1.399-1.99,3.655-3.119,6.191-3.119
			c2.253,0,4.422,0.87,5.951,2.39c0.305,0.302,0.406,0.305,0.698,0.305c0.002,0,0.004,0,0.007,0c0.626,0,1.533-0.21,2.494-0.432
			c0.312-0.073,0.624-0.145,0.934-0.213c3.775-0.823,7.59-1.24,11.341-1.24c4.677,0,9.388,0.648,14.01,1.929
			c0.103-0.063,0.21-0.129,0.303-0.185c0.311-0.194,0.629-0.389,0.963-0.576c2.193-1.233,4.164-1.832,6.031-1.832
			c1.138,0,4.161,0.288,6.295,3.087c1.594-0.227,3.11-0.273,4.485-0.273c0.695,0,1.392,0.013,2.09,0.026
			c0.636,0.012,1.274,0.024,1.911,0.024c1.635,0,3.365-0.071,4.941-0.586c0.816-0.266,1.619-0.402,2.387-0.402
			c2.34,0,4.36,1.211,5.404,3.238c1.532,2.979,0.325,6.486-1.175,8.586c-2.784,3.9-6.345,6.434-10.625,7.574
			c2.784,2.725,3.311,5.473,3.236,7.361c-0.123,3.132-1.872,5.94-5.197,8.349l-0.487,0.353l-0.556,0.232
			C371.856,508.504,369.871,508.916,367.906,508.916z"/>
		<path style="fill:#FFEB00;" d="M382.419,477.29c-5.767,1.883-11.728-0.304-17.31,1.754c-0.252-0.145-0.519-0.181-0.8-0.108
			c-0.839-4.575-3.706-4.194-6.718-2.499c-1.527,0.859-2.655,1.954-4.693,1.368c-7.699-2.214-15.476-2.47-23.35-0.752
			c-2.962,0.646-6.062,1.733-8.853-1.037c-1.136-1.128-3.528-1.29-4.346,0.094c-1.699,2.875-3.949,2.027-6.402,2.025
			c-5.453-0.005-10.928,0.635-16.817-2.964c4.242,10.03,9.149,12.601,19.289,11.348c0.977-0.121,2.206-1.247,2.949,0.219
			c0.725,1.43-0.275,2.514-1.348,3.188c-2.145,1.346-4.462,2.417-6.62,3.744c-2.354,1.447-3.681,3.573-2.964,6.401
			c0.719,2.835,3.237,3.322,5.627,3.538c3.316,0.299,6.241-1.035,8.92-2.842c12.759-8.606,25.854-8.342,39.219-1.574
			c4.011,3.187,8.112,6.05,13.633,3.754c3.75-2.716,4.114-5.572,0.87-8.337c-1.302-1.109-2.94-1.833-4.452-2.684
			c-2.168-1.22-5.516-2.253-4.607-5.098c0.675-2.112,3.658-0.151,5.527,0.028c5.893,0.562,10.637-1.193,14.08-6.016
			C384.231,479.469,385.014,476.442,382.419,477.29z"/>
		<path style="fill:#040000;" d="M339.695,439.797c-9.565,0-19.431-2.619-29.323-7.785c-7.678-4.01-15.263-8.875-23.189-14.874
			l-0.366-0.272c-1.496-1.097-5.469-4.013-4.128-9.249c1.234-4.81,5.546-5.746,7.387-6.145c0.196-0.043,0.391-0.084,0.58-0.131
			c0.031-0.007,0.061-0.014,0.092-0.021c2.817-1.313,5.364-1.956,7.759-1.956c7.762,0,11.846,6.762,13.188,8.984
			c3.696,6.121,10.993,8.774,19.445,11.378c1.775,0.581,3.697,0.657,5.521,0.657c0.573,0,1.147-0.008,1.721-0.015
			c0.621-0.008,1.241-0.017,1.861-0.017c1.001,0,1.861,0.022,2.656,0.07l5.982-0.906c2.396-1.408,4.881-2.211,7.271-2.873
			c6.436-3.835,11.587-7.307,14.558-12.999c1.574-3.017,4.513-4.821,7.86-4.821c0.844,0,1.702,0.117,2.548,0.347l1.287,0.348
			c2.676,0.724,5.444,1.473,8.186,2.414c4.478,1.538,5.82,4.265,6.157,6.282c0.341,2.041-0.063,5.104-3.922,8.112
			c-11.259,8.773-21.349,14.849-31.753,19.123C354.057,438.334,346.863,439.797,339.695,439.797
			C339.695,439.797,339.696,439.797,339.695,439.797z"/>
		<path style="fill:#FFEB00;" d="M290.287,413.038c7.116,5.385,14.545,10.279,22.466,14.416c14.992,7.83,30.346,9.824,46.371,3.239
			c11.141-4.578,21.108-11.07,30.545-18.423c2.985-2.326,2.641-4.313-0.744-5.476c-3.002-1.031-6.087-1.829-9.154-2.664
			c-1.949-0.531-3.634,0.233-4.5,1.891c-3.799,7.279-10.363,11.412-17.09,15.397c-2.613,0.705-5.195,1.484-7.471,3.021
			c-2.533,0.383-5.065,0.766-7.598,1.149c-4.492-0.354-9.069,0.499-13.485-0.948c-8.627-2.657-17.575-5.753-22.334-13.633
			c-4.167-6.9-8.408-7.994-14.934-4.756c-0.136,0.068-0.315,0.045-0.469,0.083c-1.682,0.415-3.703,0.542-4.22,2.56
			C287.138,410.974,288.905,411.993,290.287,413.038z"/>
		<path style="fill:#040000;" d="M396.936,495.747c-1.394,0-2.755-0.41-4.046-1.216c-2.416-1.509-3.224-3.465-3.477-4.84
			c-0.578-3.145,1.202-5.492,2.158-6.753c0.123-0.163,0.244-0.318,0.346-0.469c5.137-7.654,8.652-16.211,12.04-24.497l1.971-6.385
			c2.732-11.808,4.086-21.587,4.26-30.761c0.15-7.921,5.222-8.949,7.396-9.023l0.291-0.005c2.967,0,6.723,1.389,7.766,8.006
			c1.556,9.827-0.805,18.728-3.088,27.338l-0.176,0.664c-0.587,2.217-1.345,4.306-2.079,6.328c-0.312,0.857-0.624,1.716-0.919,2.578
			l-2.589,6.908c-3.172,8.912-6.775,18.408-12.469,26.96l-0.249,0.383C403.075,492.515,400.994,495.747,396.936,495.747
			L396.936,495.747z"/>
		<path style="fill:#FFEB00;" d="M417.761,416.944c-2.328,0.078-2.398,2.269-2.43,3.979c-0.206,10.849-1.988,21.471-4.434,32.005
			c-0.698,2.259-1.396,4.519-2.093,6.779c-3.611,8.834-7.258,17.645-12.615,25.627c-0.974,1.452-3.048,3.289-0.573,4.837
			c2.247,1.405,3.413-0.915,4.427-2.439c5.332-8.008,8.732-16.92,11.935-25.916c0.846-2.255,1.692-4.51,2.539-6.766
			c0.975-2.85,2.123-5.654,2.892-8.558c2.236-8.44,4.579-16.893,3.172-25.784C420.307,418.981,420.019,416.868,417.761,416.944z"/>
		<path style="fill:#040000;" d="M281.251,495.747c-4.059,0-6.139-3.231-7.139-4.783l-0.248-0.381
			c-5.697-8.556-9.299-18.051-12.5-27.043l-2.559-6.826c-0.295-0.863-0.608-1.722-0.919-2.582c-0.733-2.02-1.492-4.109-2.079-6.324
			l-0.177-0.667c-2.283-8.608-4.643-17.508-3.103-27.238c1.061-6.714,4.816-8.103,7.782-8.103l0.288,0.005
			c2.178,0.074,7.251,1.102,7.4,9.024c0.174,9.173,1.528,18.953,4.26,30.759l1.972,6.385c3.388,8.286,6.902,16.842,12.039,24.494
			c0.103,0.154,0.224,0.308,0.347,0.471c0.957,1.261,2.736,3.608,2.158,6.753c-0.253,1.375-1.061,3.33-3.477,4.84
			C284.006,495.337,282.645,495.747,281.251,495.747z"/>
		<path style="fill:#FFEB00;" d="M260.426,416.944c2.328,0.078,2.398,2.269,2.43,3.979c0.206,10.849,1.988,21.471,4.434,32.005
			c0.698,2.259,1.396,4.519,2.093,6.779c3.611,8.834,7.258,17.645,12.615,25.627c0.974,1.452,3.048,3.289,0.573,4.837
			c-2.247,1.405-3.413-0.915-4.427-2.439c-5.332-8.008-8.732-16.92-11.935-25.916c-0.846-2.255-1.692-4.51-2.539-6.766
			c-0.975-2.85-2.123-5.654-2.892-8.558c-2.236-8.44-4.579-16.893-3.172-25.784C257.88,418.981,258.168,416.868,260.426,416.944z"/>
		<path style="fill:#040000;" d="M340.029,532.599c-6.501-0.001-13.351-1.391-20.356-4.132c-0.559-0.22-1.108-0.444-1.654-0.667
			c-2.007-0.822-3.741-1.532-5.539-1.737c-9.02-1.029-14.332-5.728-16.237-14.368l-2.031-9.211l8.842,3.282
			c0.764,0.283,1.518,0.574,2.268,0.862c3.543,1.361,6.602,2.537,9.731,2.705c0.252,0.014,0.498,0.021,0.74,0.021
			c2.304,0,3.312-0.566,4.494-2.523c3.784-6.261,10.951-9.997,19.171-9.997c8.177,0,15.398,3.686,19.316,9.86
			c0.852,1.34,1.427,2.218,2.017,2.664c0.397,0.025,0.799,0.038,1.202,0.038c3.157,0,6.338-0.774,9.13-1.611
			c1.275-1.016,3.053-2.236,5.335-2.236c1.854,0,3.577,0.836,4.728,2.294c3.705,4.689,0.666,9.358-1.637,11.85
			c-4.273,5.417-10.723,6.126-13.845,6.468c-1.782,0.195-3.387,0.666-5.051,1.48C354.151,530.921,347.192,532.599,340.029,532.599
			L340.029,532.599z"/>
		<path style="fill:#FFEB00;" d="M373.591,512.407c-4.639,1.448-9.328,2.536-14.246,1.984c-2.366-0.928-3.604-2.883-4.912-4.943
			c-6.303-9.931-23.668-10.012-29.745,0.041c-2.452,4.057-5.593,5.209-9.911,4.977c-4.708-0.253-8.951-2.186-13.513-3.88
			c1.417,6.427,4.93,9.584,11.799,10.367c3.092,0.352,5.676,1.625,8.484,2.724c12.292,4.812,24.673,5.483,36.848-0.655
			c2.137-1.046,4.326-1.707,6.749-1.973c3.928-0.431,7.854-1.222,10.489-4.698c1.462-1.533,3.026-3.414,1.519-5.321
			C376.349,510.012,374.672,511.532,373.591,512.407z"/>
	</g>
</g>
</svg>
